<svg width="287" height="116" viewBox="0 0 287 116" fill="none" xmlns="http://www.w3.org/2000/svg">
<path d="M2.70312 0.270508H98.2969C99.6403 0.270508 100.729 1.35973 100.729 2.70312V17.2969C100.729 18.6403 99.6403 19.7295 98.2969 19.7295H2.70312C1.35973 19.7295 0.270508 18.6403 0.270508 17.2969V2.70312C0.270508 1.35973 1.35973 0.270508 2.70312 0.270508Z" fill="#09090A"/>
<path d="M2.70312 0.270508H98.2969C99.6403 0.270508 100.729 1.35973 100.729 2.70312V17.2969C100.729 18.6403 99.6403 19.7295 98.2969 19.7295H2.70312C1.35973 19.7295 0.270508 18.6403 0.270508 17.2969V2.70312C0.270508 1.35973 1.35973 0.270508 2.70312 0.270508Z" stroke="#323238" stroke-width="0.540541"/>
<path d="M8.86 14V6H10.17V9.37H12.83V6H14.14V14H12.83V10.6H10.17V14H8.86ZM16.852 10.35H20.402L19.982 10.9C19.982 10.2467 19.8653 9.75333 19.632 9.42C19.4053 9.08 19.0653 8.91 18.612 8.91C18.132 8.91 17.762 9.08667 17.502 9.44C17.242 9.79333 17.112 10.29 17.112 10.93C17.112 11.6167 17.242 12.1433 17.502 12.51C17.762 12.87 18.1453 13.05 18.652 13.05C18.9653 13.05 19.242 12.9733 19.482 12.82C19.722 12.66 19.9253 12.4333 20.092 12.14H21.282C21.1753 12.56 20.9953 12.9233 20.742 13.23C20.4953 13.53 20.192 13.7633 19.832 13.93C19.4786 14.09 19.082 14.17 18.642 14.17C18.062 14.17 17.5653 14.0433 17.152 13.79C16.7453 13.53 16.432 13.16 16.212 12.68C15.9986 12.1933 15.892 11.61 15.892 10.93C15.892 10.2833 16.002 9.72667 16.222 9.26C16.4486 8.79333 16.7653 8.43333 17.172 8.18C17.5786 7.92 18.0586 7.79 18.612 7.79C19.1386 7.79 19.5886 7.91 19.962 8.15C20.342 8.39 20.6286 8.74333 20.822 9.21C21.022 9.67 21.122 10.23 21.122 10.89C21.122 10.9767 21.1186 11.0633 21.112 11.15C21.112 11.23 21.1086 11.31 21.102 11.39H16.852V10.35ZM23.2339 5.52H26.3039V12.84H28.1139V14H23.2339V12.84H25.0439V6.68H23.2339V5.52ZM30.2359 5.52H33.3059V12.84H35.1159V14H30.2359V12.84H32.0459V6.68H30.2359V5.52ZM39.5078 14.17C38.9411 14.17 38.4478 14.04 38.0278 13.78C37.6145 13.52 37.2911 13.1533 37.0578 12.68C36.8311 12.2 36.7178 11.6333 36.7178 10.98C36.7178 10.3267 36.8311 9.76333 37.0578 9.29C37.2911 8.81 37.6145 8.44 38.0278 8.18C38.4478 7.92 38.9411 7.79 39.5078 7.79C40.0811 7.79 40.5745 7.92 40.9878 8.18C41.4011 8.44 41.7211 8.81 41.9478 9.29C42.1811 9.76333 42.2978 10.3267 42.2978 10.98C42.2978 11.6333 42.1811 12.2 41.9478 12.68C41.7211 13.1533 41.4011 13.52 40.9878 13.78C40.5745 14.04 40.0811 14.17 39.5078 14.17ZM39.5078 13.01C39.9945 13.01 40.3745 12.8333 40.6478 12.48C40.9211 12.12 41.0578 11.62 41.0578 10.98C41.0578 10.3333 40.9211 9.83333 40.6478 9.48C40.3745 9.12 39.9945 8.94 39.5078 8.94C39.0211 8.94 38.6411 9.12 38.3678 9.48C38.0945 9.83333 37.9578 10.3333 37.9578 10.98C37.9578 11.62 38.0945 12.12 38.3678 12.48C38.6411 12.8333 39.0211 13.01 39.5078 13.01ZM51.4317 6L51.9417 10.65L52.0717 12.99H52.2117L52.7417 7.95H54.3817L54.8717 12.99H55.0117L55.1517 10.65L55.6717 6H56.8117L55.9017 14H54.1117L53.5917 8.84H53.4617L52.9017 14H51.1217L50.2117 6H51.4317ZM60.5137 14.17C59.947 14.17 59.4537 14.04 59.0337 13.78C58.6203 13.52 58.297 13.1533 58.0637 12.68C57.837 12.2 57.7237 11.6333 57.7237 10.98C57.7237 10.3267 57.837 9.76333 58.0637 9.29C58.297 8.81 58.6203 8.44 59.0337 8.18C59.4537 7.92 59.947 7.79 60.5137 7.79C61.087 7.79 61.5803 7.92 61.9937 8.18C62.407 8.44 62.727 8.81 62.9537 9.29C63.187 9.76333 63.3037 10.3267 63.3037 10.98C63.3037 11.6333 63.187 12.2 62.9537 12.68C62.727 13.1533 62.407 13.52 61.9937 13.78C61.5803 14.04 61.087 14.17 60.5137 14.17ZM60.5137 13.01C61.0003 13.01 61.3803 12.8333 61.6537 12.48C61.927 12.12 62.0637 11.62 62.0637 10.98C62.0637 10.3333 61.927 9.83333 61.6537 9.48C61.3803 9.12 61.0003 8.94 60.5137 8.94C60.027 8.94 59.647 9.12 59.3737 9.48C59.1003 9.83333 58.9637 10.3333 58.9637 10.98C58.9637 11.62 59.1003 12.12 59.3737 12.48C59.647 12.8333 60.027 13.01 60.5137 13.01ZM64.9156 7.95H67.3456V8.43H67.6756C67.789 8.22333 67.9523 8.06667 68.1656 7.96C68.379 7.84667 68.619 7.79 68.8856 7.79C69.3723 7.79 69.749 7.96333 70.0156 8.31C70.289 8.65667 70.4256 9.14333 70.4256 9.77V10.68H69.1256V9.95C69.1256 9.31 68.8723 8.99 68.3656 8.99C68.0456 8.99 67.8056 9.13333 67.6456 9.42C67.4923 9.70667 67.4156 10.14 67.4156 10.72V12.84H69.2356V14H65.0756V12.84H66.1756V9.11H64.9156V7.95ZM72.2476 5.52H75.3176V12.84H77.1276V14H72.2476V12.84H74.0576V6.68H72.2476V5.52ZM81.0195 14.16C80.5262 14.16 80.0962 14.03 79.7295 13.77C79.3629 13.51 79.0795 13.1433 78.8795 12.67C78.6795 12.19 78.5795 11.6267 78.5795 10.98C78.5795 10.3267 78.6795 9.76333 78.8795 9.29C79.0795 8.81 79.3629 8.44 79.7295 8.18C80.0962 7.92 80.5262 7.79 81.0195 7.79C81.3395 7.79 81.6295 7.85667 81.8895 7.99C82.1495 8.11667 82.3429 8.29333 82.4695 8.52H82.7895V5.52H84.0495V14H82.7895V13.44H82.4695C82.3429 13.66 82.1495 13.8367 81.8895 13.97C81.6295 14.0967 81.3395 14.16 81.0195 14.16ZM81.3295 13C81.8095 13 82.1829 12.8233 82.4495 12.47C82.7162 12.11 82.8495 11.6133 82.8495 10.98C82.8495 10.34 82.7162 9.84333 82.4495 9.49C82.1829 9.13 81.8095 8.95 81.3295 8.95C80.8495 8.95 80.4762 9.13 80.2095 9.49C79.9495 9.84333 79.8195 10.34 79.8195 10.98C79.8195 11.62 79.9495 12.1167 80.2095 12.47C80.4762 12.8233 80.8495 13 81.3295 13ZM85.6115 15.64V14.5H91.4315V15.64H85.6115Z" fill="url(#paint0_linear_4152_480)"/>
<path d="M3.08 78V48.2H7.48L18.68 63.72H16.48L27.48 48.2H31.88V78H27.2V53.76L28.96 54.24L17.72 69.6H17.24L6.24 54.24L7.8 53.76V78H3.08ZM45.3209 78.48C43.6943 78.48 42.2676 78.12 41.0409 77.4C39.8143 76.6533 38.8543 75.6267 38.1609 74.32C37.4943 72.9867 37.1609 71.4533 37.1609 69.72V56.36H41.6809V69.32C41.6809 70.3067 41.8809 71.1733 42.2809 71.92C42.6809 72.6667 43.2409 73.2533 43.9609 73.68C44.6809 74.08 45.5076 74.28 46.4409 74.28C47.4009 74.28 48.2409 74.0667 48.9609 73.64C49.6809 73.2133 50.2409 72.6133 50.6409 71.84C51.0676 71.0667 51.2809 70.16 51.2809 69.12V56.36H55.7609V78H51.4809V73.76L51.9609 74.32C51.4543 75.6533 50.6143 76.68 49.4409 77.4C48.2676 78.12 46.8943 78.48 45.3209 78.48ZM71.0384 78.48C68.9584 78.48 67.0918 77.9867 65.4384 77C63.8118 75.9867 62.5184 74.6267 61.5584 72.92C60.6251 71.2133 60.1584 69.2933 60.1584 67.16C60.1584 65.0267 60.6384 63.1067 61.5984 61.4C62.5584 59.6933 63.8518 58.3467 65.4784 57.36C67.1051 56.3733 68.9451 55.88 70.9984 55.88C72.7318 55.88 74.2651 56.2267 75.5984 56.92C76.9318 57.6133 77.9851 58.5733 78.7584 59.8L78.0784 60.84V47.72H82.5584V78H78.2784V73.6L78.7984 74.44C78.0518 75.7467 76.9851 76.7467 75.5984 77.44C74.2118 78.1333 72.6918 78.48 71.0384 78.48ZM71.4784 74.28C72.7318 74.28 73.8518 73.9733 74.8384 73.36C75.8518 72.7467 76.6384 71.9067 77.1984 70.84C77.7851 69.7467 78.0784 68.52 78.0784 67.16C78.0784 65.8 77.7851 64.5867 77.1984 63.52C76.6384 62.4533 75.8518 61.6133 74.8384 61C73.8518 60.3867 72.7318 60.08 71.4784 60.08C70.2251 60.08 69.0918 60.3867 68.0784 61C67.0651 61.6133 66.2784 62.4533 65.7184 63.52C65.1584 64.5867 64.8784 65.8 64.8784 67.16C64.8784 68.52 65.1584 69.7467 65.7184 70.84C66.2784 71.9067 67.0518 72.7467 68.0384 73.36C69.0518 73.9733 70.1984 74.28 71.4784 74.28ZM97.9953 78.48C95.8353 78.48 93.9153 77.9867 92.2353 77C90.582 75.9867 89.2886 74.6267 88.3553 72.92C87.422 71.1867 86.9553 69.2533 86.9553 67.12C86.9553 64.9333 87.422 63 88.3553 61.32C89.3153 59.64 90.5953 58.32 92.1953 57.36C93.7953 56.3733 95.6086 55.88 97.6353 55.88C99.262 55.88 100.715 56.16 101.995 56.72C103.275 57.28 104.355 58.0533 105.235 59.04C106.115 60 106.782 61.1067 107.235 62.36C107.715 63.6133 107.955 64.9467 107.955 66.36C107.955 66.7067 107.942 67.0667 107.915 67.44C107.889 67.8133 107.835 68.16 107.755 68.48H90.5153V64.88H105.195L103.035 66.52C103.302 65.2133 103.209 64.0533 102.755 63.04C102.329 62 101.662 61.1867 100.755 60.6C99.8753 59.9867 98.8353 59.68 97.6353 59.68C96.4353 59.68 95.3686 59.9867 94.4353 60.6C93.502 61.1867 92.782 62.04 92.2753 63.16C91.7686 64.2533 91.5686 65.5867 91.6753 67.16C91.542 68.6267 91.742 69.9067 92.2753 71C92.8353 72.0933 93.6086 72.9467 94.5953 73.56C95.6086 74.1733 96.7553 74.48 98.0353 74.48C99.342 74.48 100.449 74.1867 101.355 73.6C102.289 73.0133 103.022 72.2533 103.555 71.32L107.235 73.12C106.809 74.1333 106.142 75.0533 105.235 75.88C104.355 76.68 103.289 77.32 102.035 77.8C100.809 78.2533 99.462 78.48 97.9953 78.48ZM129.359 78.48C127.279 78.48 125.412 77.9867 123.759 77C122.132 75.9867 120.839 74.6267 119.879 72.92C118.945 71.2133 118.479 69.2933 118.479 67.16C118.479 65.0267 118.959 63.1067 119.919 61.4C120.879 59.6933 122.172 58.3467 123.799 57.36C125.425 56.3733 127.265 55.88 129.319 55.88C131.052 55.88 132.585 56.2267 133.919 56.92C135.252 57.6133 136.305 58.5733 137.079 59.8L136.399 60.84V47.72H140.879V78H136.599V73.6L137.119 74.44C136.372 75.7467 135.305 76.7467 133.919 77.44C132.532 78.1333 131.012 78.48 129.359 78.48ZM129.799 74.28C131.052 74.28 132.172 73.9733 133.159 73.36C134.172 72.7467 134.959 71.9067 135.519 70.84C136.105 69.7467 136.399 68.52 136.399 67.16C136.399 65.8 136.105 64.5867 135.519 63.52C134.959 62.4533 134.172 61.6133 133.159 61C132.172 60.3867 131.052 60.08 129.799 60.08C128.545 60.08 127.412 60.3867 126.399 61C125.385 61.6133 124.599 62.4533 124.039 63.52C123.479 64.5867 123.199 65.8 123.199 67.16C123.199 68.52 123.479 69.7467 124.039 70.84C124.599 71.9067 125.372 72.7467 126.359 73.36C127.372 73.9733 128.519 74.28 129.799 74.28ZM156.316 78.48C154.156 78.48 152.236 77.9867 150.556 77C148.902 75.9867 147.609 74.6267 146.676 72.92C145.742 71.1867 145.276 69.2533 145.276 67.12C145.276 64.9333 145.742 63 146.676 61.32C147.636 59.64 148.916 58.32 150.516 57.36C152.116 56.3733 153.929 55.88 155.956 55.88C157.582 55.88 159.036 56.16 160.316 56.72C161.596 57.28 162.676 58.0533 163.556 59.04C164.436 60 165.102 61.1067 165.556 62.36C166.036 63.6133 166.276 64.9467 166.276 66.36C166.276 66.7067 166.262 67.0667 166.236 67.44C166.209 67.8133 166.156 68.16 166.076 68.48H148.836V64.88H163.516L161.356 66.52C161.622 65.2133 161.529 64.0533 161.076 63.04C160.649 62 159.982 61.1867 159.076 60.6C158.196 59.9867 157.156 59.68 155.956 59.68C154.756 59.68 153.689 59.9867 152.756 60.6C151.822 61.1867 151.102 62.04 150.596 63.16C150.089 64.2533 149.889 65.5867 149.996 67.16C149.862 68.6267 150.062 69.9067 150.596 71C151.156 72.0933 151.929 72.9467 152.916 73.56C153.929 74.1733 155.076 74.48 156.356 74.48C157.662 74.48 158.769 74.1867 159.676 73.6C160.609 73.0133 161.342 72.2533 161.876 71.32L165.556 73.12C165.129 74.1333 164.462 75.0533 163.556 75.88C162.676 76.68 161.609 77.32 160.356 77.8C159.129 78.2533 157.782 78.48 156.316 78.48ZM183.959 78L175.479 56.36H180.399L186.919 74H185.119L191.639 56.36H196.599L188.079 78H183.959ZM199.671 78V56.36H204.191V78H199.671ZM199.671 53.4V48.2H204.191V53.4H199.671ZM219.476 78.48C217.396 78.48 215.529 77.9867 213.876 77C212.249 75.9867 210.956 74.6267 209.996 72.92C209.063 71.2133 208.596 69.2933 208.596 67.16C208.596 65.0267 209.076 63.1067 210.036 61.4C210.996 59.6933 212.289 58.3467 213.916 57.36C215.543 56.3733 217.383 55.88 219.436 55.88C221.169 55.88 222.703 56.2267 224.036 56.92C225.369 57.6133 226.423 58.5733 227.196 59.8L226.516 60.84V47.72H230.996V78H226.716V73.6L227.236 74.44C226.489 75.7467 225.423 76.7467 224.036 77.44C222.649 78.1333 221.129 78.48 219.476 78.48ZM219.916 74.28C221.169 74.28 222.289 73.9733 223.276 73.36C224.289 72.7467 225.076 71.9067 225.636 70.84C226.223 69.7467 226.516 68.52 226.516 67.16C226.516 65.8 226.223 64.5867 225.636 63.52C225.076 62.4533 224.289 61.6133 223.276 61C222.289 60.3867 221.169 60.08 219.916 60.08C218.663 60.08 217.529 60.3867 216.516 61C215.503 61.6133 214.716 62.4533 214.156 63.52C213.596 64.5867 213.316 65.8 213.316 67.16C213.316 68.52 213.596 69.7467 214.156 70.84C214.716 71.9067 215.489 72.7467 216.476 73.36C217.489 73.9733 218.636 74.28 219.916 74.28ZM242.753 78.48C241.286 78.48 239.993 78.2267 238.873 77.72C237.779 77.1867 236.926 76.4667 236.313 75.56C235.699 74.6267 235.393 73.5333 235.393 72.28C235.393 71.1067 235.646 70.0533 236.153 69.12C236.686 68.1867 237.499 67.4 238.593 66.76C239.686 66.12 241.059 65.6667 242.713 65.4L250.233 64.16V67.72L243.593 68.88C242.393 69.0933 241.513 69.48 240.953 70.04C240.393 70.5733 240.113 71.2667 240.113 72.12C240.113 72.9467 240.419 73.6267 241.033 74.16C241.673 74.6667 242.486 74.92 243.473 74.92C244.699 74.92 245.766 74.6533 246.673 74.12C247.606 73.5867 248.326 72.88 248.833 72C249.339 71.0933 249.593 70.0933 249.593 69V63.44C249.593 62.3733 249.193 61.5067 248.393 60.84C247.619 60.1467 246.579 59.8 245.273 59.8C244.073 59.8 243.019 60.12 242.113 60.76C241.233 61.3733 240.579 62.1733 240.153 63.16L236.393 61.28C236.793 60.2133 237.446 59.28 238.353 58.48C239.259 57.6533 240.313 57.0133 241.513 56.56C242.739 56.1067 244.033 55.88 245.393 55.88C247.099 55.88 248.606 56.2 249.913 56.84C251.246 57.48 252.273 58.3733 252.993 59.52C253.739 60.64 254.113 61.9467 254.113 63.44V78H249.793V74.08L250.713 74.2C250.206 75.08 249.553 75.84 248.753 76.48C247.979 77.12 247.086 77.6133 246.073 77.96C245.086 78.3067 243.979 78.48 242.753 78.48ZM5.472 109.288C4.592 109.288 3.816 109.136 3.144 108.832C2.488 108.512 1.976 108.08 1.608 107.536C1.24 106.976 1.056 106.32 1.056 105.568C1.056 104.864 1.208 104.232 1.512 103.672C1.832 103.112 2.32 102.64 2.976 102.256C3.632 101.872 4.456 101.6 5.448 101.44L9.96 100.696V102.832L5.976 103.528C5.256 103.656 4.728 103.888 4.392 104.224C4.056 104.544 3.888 104.96 3.888 105.472C3.888 105.968 4.072 106.376 4.44 106.696C4.824 107 5.312 107.152 5.904 107.152C6.64 107.152 7.28 106.992 7.824 106.672C8.384 106.352 8.816 105.928 9.12 105.4C9.424 104.856 9.576 104.256 9.576 103.6V100.264C9.576 99.624 9.336 99.104 8.856 98.704C8.392 98.288 7.768 98.08 6.984 98.08C6.264 98.08 5.632 98.272 5.088 98.656C4.56 99.024 4.168 99.504 3.912 100.096L1.656 98.968C1.896 98.328 2.288 97.768 2.832 97.288C3.376 96.792 4.008 96.408 4.728 96.136C5.464 95.864 6.24 95.728 7.056 95.728C8.08 95.728 8.984 95.92 9.768 96.304C10.568 96.688 11.184 97.224 11.616 97.912C12.064 98.584 12.288 99.368 12.288 100.264V109H9.696V106.648L10.248 106.72C9.944 107.248 9.552 107.704 9.072 108.088C8.608 108.472 8.072 108.768 7.464 108.976C6.872 109.184 6.208 109.288 5.472 109.288ZM20.8406 109.144C19.4806 109.144 18.4246 108.76 17.6726 107.992C16.9206 107.224 16.5446 106.144 16.5446 104.752V98.464H14.2646V96.016H14.6246C15.2326 96.016 15.7046 95.84 16.0406 95.488C16.3766 95.136 16.5446 94.656 16.5446 94.048V93.04H19.2566V96.016H22.2086V98.464H19.2566V104.632C19.2566 105.08 19.3286 105.464 19.4726 105.784C19.6166 106.088 19.8486 106.328 20.1686 106.504C20.4886 106.664 20.9046 106.744 21.4166 106.744C21.5446 106.744 21.6886 106.736 21.8486 106.72C22.0086 106.704 22.1606 106.688 22.3046 106.672V109C22.0806 109.032 21.8326 109.064 21.5606 109.096C21.2886 109.128 21.0486 109.144 20.8406 109.144ZM24.9512 109V96.016H27.5432V98.632L27.3032 98.248C27.5912 97.4 28.0552 96.792 28.6952 96.424C29.3352 96.04 30.1032 95.848 30.9992 95.848H31.7912V98.32H30.6632C29.7672 98.32 29.0392 98.6 28.4792 99.16C27.9352 99.704 27.6632 100.488 27.6632 101.512V109H24.9512ZM37.5345 109.288C36.6545 109.288 35.8785 109.136 35.2065 108.832C34.5505 108.512 34.0385 108.08 33.6705 107.536C33.3025 106.976 33.1185 106.32 33.1185 105.568C33.1185 104.864 33.2705 104.232 33.5745 103.672C33.8945 103.112 34.3825 102.64 35.0385 102.256C35.6945 101.872 36.5185 101.6 37.5105 101.44L42.0225 100.696V102.832L38.0385 103.528C37.3185 103.656 36.7905 103.888 36.4545 104.224C36.1185 104.544 35.9505 104.96 35.9505 105.472C35.9505 105.968 36.1345 106.376 36.5025 106.696C36.8865 107 37.3745 107.152 37.9665 107.152C38.7025 107.152 39.3425 106.992 39.8865 106.672C40.4465 106.352 40.8785 105.928 41.1825 105.4C41.4865 104.856 41.6385 104.256 41.6385 103.6V100.264C41.6385 99.624 41.3985 99.104 40.9185 98.704C40.4545 98.288 39.8305 98.08 39.0465 98.08C38.3265 98.08 37.6945 98.272 37.1505 98.656C36.6225 99.024 36.2305 99.504 35.9745 100.096L33.7185 98.968C33.9585 98.328 34.3505 97.768 34.8945 97.288C35.4385 96.792 36.0705 96.408 36.7905 96.136C37.5265 95.864 38.3025 95.728 39.1185 95.728C40.1425 95.728 41.0465 95.92 41.8305 96.304C42.6305 96.688 43.2465 97.224 43.6785 97.912C44.1265 98.584 44.3505 99.368 44.3505 100.264V109H41.7585V106.648L42.3105 106.72C42.0065 107.248 41.6145 107.704 41.1345 108.088C40.6705 108.472 40.1345 108.768 39.5265 108.976C38.9345 109.184 38.2705 109.288 37.5345 109.288ZM51.0551 109L45.9671 96.016H48.9191L52.8311 106.6H51.7511L55.6631 96.016H58.6391L53.5271 109H51.0551ZM66.3441 109.288C65.0481 109.288 63.8961 108.992 62.8881 108.4C61.8961 107.792 61.1201 106.976 60.5601 105.952C60.0001 104.912 59.7201 103.752 59.7201 102.472C59.7201 101.16 60.0001 100 60.5601 98.992C61.1361 97.984 61.9041 97.192 62.8641 96.616C63.8241 96.024 64.9121 95.728 66.1281 95.728C67.1041 95.728 67.9761 95.896 68.7441 96.232C69.5121 96.568 70.1601 97.032 70.6881 97.624C71.2161 98.2 71.6161 98.864 71.8881 99.616C72.1761 100.368 72.3201 101.168 72.3201 102.016C72.3201 102.224 72.3121 102.44 72.2961 102.664C72.2801 102.888 72.2481 103.096 72.2001 103.288H61.8561V101.128H70.6641L69.3681 102.112C69.5281 101.328 69.4721 100.632 69.2001 100.024C68.9441 99.4 68.5441 98.912 68.0001 98.56C67.4721 98.192 66.8481 98.008 66.1281 98.008C65.4081 98.008 64.7681 98.192 64.2081 98.56C63.6481 98.912 63.2161 99.424 62.9121 100.096C62.6081 100.752 62.4881 101.552 62.5521 102.496C62.4721 103.376 62.5921 104.144 62.9121 104.8C63.2481 105.456 63.7121 105.968 64.3041 106.336C64.9121 106.704 65.6001 106.888 66.3681 106.888C67.1521 106.888 67.8161 106.712 68.3601 106.36C68.9201 106.008 69.3601 105.552 69.6801 104.992L71.8881 106.072C71.6321 106.68 71.2321 107.232 70.6881 107.728C70.1601 108.208 69.5201 108.592 68.7681 108.88C68.0321 109.152 67.2241 109.288 66.3441 109.288ZM64.6881 93.64L66.4401 89.68H69.9921L67.3761 93.64H64.6881ZM79.7668 109.288C78.4388 109.288 77.2708 108.96 76.2628 108.304C75.2708 107.648 74.5748 106.768 74.1748 105.664L76.2628 104.68C76.6148 105.416 77.0948 106 77.7028 106.432C78.3268 106.864 79.0148 107.08 79.7668 107.08C80.4068 107.08 80.9268 106.936 81.3268 106.648C81.7268 106.36 81.9268 105.968 81.9268 105.472C81.9268 105.152 81.8388 104.896 81.6628 104.704C81.4868 104.496 81.2628 104.328 80.9908 104.2C80.7348 104.072 80.4708 103.976 80.1988 103.912L78.1588 103.336C77.0388 103.016 76.1988 102.536 75.6388 101.896C75.0948 101.24 74.8228 100.48 74.8228 99.616C74.8228 98.832 75.0228 98.152 75.4228 97.576C75.8228 96.984 76.3748 96.528 77.0788 96.208C77.7828 95.888 78.5748 95.728 79.4548 95.728C80.6388 95.728 81.6948 96.024 82.6228 96.616C83.5508 97.192 84.2068 98 84.5908 99.04L82.5028 100.024C82.2468 99.4 81.8388 98.904 81.2788 98.536C80.7348 98.168 80.1188 97.984 79.4308 97.984C78.8388 97.984 78.3668 98.128 78.0148 98.416C77.6628 98.688 77.4868 99.048 77.4868 99.496C77.4868 99.8 77.5668 100.056 77.7268 100.264C77.8868 100.456 78.0948 100.616 78.3508 100.744C78.6068 100.856 78.8708 100.952 79.1428 101.032L81.2548 101.656C82.3268 101.96 83.1508 102.44 83.7268 103.096C84.3028 103.736 84.5908 104.504 84.5908 105.4C84.5908 106.168 84.3828 106.848 83.9668 107.44C83.5668 108.016 83.0068 108.472 82.2868 108.808C81.5668 109.128 80.7268 109.288 79.7668 109.288ZM97.4434 109.288C96.1954 109.288 95.0754 108.992 94.0834 108.4C93.1074 107.792 92.3314 106.976 91.7554 105.952C91.1954 104.928 90.9154 103.776 90.9154 102.496C90.9154 101.216 91.2034 100.064 91.7794 99.04C92.3554 98.016 93.1314 97.208 94.1074 96.616C95.0834 96.024 96.1874 95.728 97.4194 95.728C98.4594 95.728 99.3794 95.936 100.179 96.352C100.979 96.768 101.611 97.344 102.075 98.08L101.667 98.704V90.832H104.355V109H101.787V106.36L102.099 106.864C101.651 107.648 101.011 108.248 100.179 108.664C99.3474 109.08 98.4354 109.288 97.4434 109.288ZM97.7074 106.768C98.4594 106.768 99.1314 106.584 99.7234 106.216C100.331 105.848 100.803 105.344 101.139 104.704C101.491 104.048 101.667 103.312 101.667 102.496C101.667 101.68 101.491 100.952 101.139 100.312C100.803 99.672 100.331 99.168 99.7234 98.8C99.1314 98.432 98.4594 98.248 97.7074 98.248C96.9554 98.248 96.2754 98.432 95.6674 98.8C95.0594 99.168 94.5874 99.672 94.2514 100.312C93.9154 100.952 93.7474 101.68 93.7474 102.496C93.7474 103.312 93.9154 104.048 94.2514 104.704C94.5874 105.344 95.0514 105.848 95.6434 106.216C96.2514 106.584 96.9394 106.768 97.7074 106.768ZM111.41 109.288C110.53 109.288 109.754 109.136 109.082 108.832C108.426 108.512 107.914 108.08 107.546 107.536C107.178 106.976 106.994 106.32 106.994 105.568C106.994 104.864 107.146 104.232 107.45 103.672C107.77 103.112 108.258 102.64 108.914 102.256C109.57 101.872 110.394 101.6 111.386 101.44L115.898 100.696V102.832L111.914 103.528C111.194 103.656 110.666 103.888 110.33 104.224C109.994 104.544 109.826 104.96 109.826 105.472C109.826 105.968 110.01 106.376 110.378 106.696C110.762 107 111.25 107.152 111.842 107.152C112.578 107.152 113.218 106.992 113.762 106.672C114.322 106.352 114.754 105.928 115.058 105.4C115.362 104.856 115.514 104.256 115.514 103.6V100.264C115.514 99.624 115.274 99.104 114.794 98.704C114.33 98.288 113.706 98.08 112.922 98.08C112.202 98.08 111.57 98.272 111.026 98.656C110.498 99.024 110.106 99.504 109.85 100.096L107.594 98.968C107.834 98.328 108.226 97.768 108.77 97.288C109.314 96.792 109.946 96.408 110.666 96.136C111.402 95.864 112.178 95.728 112.993 95.728C114.018 95.728 114.922 95.92 115.706 96.304C116.506 96.688 117.122 97.224 117.554 97.912C118.002 98.584 118.226 99.368 118.226 100.264V109H115.634V106.648L116.186 106.72C115.882 107.248 115.49 107.704 115.01 108.088C114.546 108.472 114.01 108.768 113.402 108.976C112.81 109.184 112.146 109.288 111.41 109.288ZM125.592 113.8V96.016H128.184V98.704L127.872 98.08C128.352 97.344 128.992 96.768 129.792 96.352C130.592 95.936 131.504 95.728 132.528 95.728C133.76 95.728 134.864 96.024 135.84 96.616C136.832 97.208 137.608 98.016 138.168 99.04C138.744 100.064 139.032 101.216 139.032 102.496C139.032 103.776 138.744 104.928 138.168 105.952C137.608 106.976 136.84 107.792 135.864 108.4C134.888 108.992 133.776 109.288 132.528 109.288C131.52 109.288 130.6 109.08 129.768 108.664C128.952 108.248 128.32 107.648 127.872 106.864L128.304 106.36V113.8H125.592ZM132.264 106.768C133.032 106.768 133.712 106.584 134.304 106.216C134.896 105.848 135.36 105.344 135.696 104.704C136.048 104.048 136.224 103.312 136.224 102.496C136.224 101.68 136.048 100.952 135.696 100.312C135.36 99.672 134.896 99.168 134.304 98.8C133.712 98.432 133.032 98.248 132.264 98.248C131.512 98.248 130.832 98.432 130.224 98.8C129.632 99.168 129.16 99.672 128.808 100.312C128.472 100.952 128.304 101.68 128.304 102.496C128.304 103.312 128.472 104.048 128.808 104.704C129.16 105.344 129.632 105.848 130.224 106.216C130.832 106.584 131.512 106.768 132.264 106.768ZM141.67 109V96.016H144.262V98.632L144.022 98.248C144.31 97.4 144.774 96.792 145.414 96.424C146.054 96.04 146.822 95.848 147.718 95.848H148.51V98.32H147.382C146.486 98.32 145.758 98.6 145.198 99.16C144.654 99.704 144.382 100.488 144.382 101.512V109H141.67ZM156.629 109.288C155.381 109.288 154.237 108.992 153.197 108.4C152.173 107.808 151.357 107 150.749 105.976C150.141 104.952 149.837 103.792 149.837 102.496C149.837 101.184 150.141 100.024 150.749 99.016C151.357 97.992 152.173 97.192 153.197 96.616C154.221 96.024 155.365 95.728 156.629 95.728C157.909 95.728 159.053 96.024 160.061 96.616C161.085 97.192 161.893 97.992 162.485 99.016C163.093 100.024 163.397 101.184 163.397 102.496C163.397 103.808 163.093 104.976 162.485 106C161.877 107.024 161.061 107.832 160.037 108.424C159.013 109 157.877 109.288 156.629 109.288ZM156.629 106.768C157.397 106.768 158.077 106.584 158.669 106.216C159.261 105.848 159.725 105.344 160.061 104.704C160.413 104.048 160.589 103.312 160.589 102.496C160.589 101.68 160.413 100.952 160.061 100.312C159.725 99.672 159.261 99.168 158.669 98.8C158.077 98.432 157.397 98.248 156.629 98.248C155.877 98.248 155.197 98.432 154.589 98.8C153.997 99.168 153.525 99.672 153.173 100.312C152.837 100.952 152.669 101.68 152.669 102.496C152.669 103.312 152.837 104.048 153.173 104.704C153.525 105.344 153.997 105.848 154.589 106.216C155.197 106.584 155.877 106.768 156.629 106.768ZM172.309 114.28C171.365 114.28 170.493 114.128 169.693 113.824C168.893 113.52 168.205 113.096 167.629 112.552C167.053 112.024 166.621 111.4 166.333 110.68L168.829 109.648C169.053 110.256 169.461 110.76 170.053 111.16C170.661 111.56 171.405 111.76 172.285 111.76C172.973 111.76 173.589 111.624 174.133 111.352C174.677 111.096 175.109 110.712 175.429 110.2C175.749 109.704 175.909 109.104 175.909 108.4V105.472L176.389 106.024C175.941 106.856 175.317 107.488 174.517 107.92C173.733 108.352 172.845 108.568 171.853 108.568C170.653 108.568 169.573 108.288 168.613 107.728C167.653 107.168 166.893 106.4 166.333 105.424C165.789 104.448 165.517 103.352 165.517 102.136C165.517 100.904 165.789 99.808 166.333 98.848C166.893 97.888 167.645 97.128 168.589 96.568C169.533 96.008 170.613 95.728 171.829 95.728C172.821 95.728 173.701 95.944 174.469 96.376C175.253 96.792 175.893 97.4 176.389 98.2L176.029 98.872V96.016H178.597V108.4C178.597 109.52 178.325 110.52 177.781 111.4C177.253 112.296 176.517 113 175.573 113.512C174.629 114.024 173.541 114.28 172.309 114.28ZM172.165 106.048C172.885 106.048 173.525 105.88 174.085 105.544C174.645 105.192 175.085 104.728 175.405 104.152C175.741 103.56 175.909 102.896 175.909 102.16C175.909 101.424 175.741 100.76 175.405 100.168C175.069 99.576 174.621 99.112 174.061 98.776C173.501 98.424 172.869 98.248 172.165 98.248C171.429 98.248 170.773 98.424 170.197 98.776C169.621 99.112 169.165 99.576 168.829 100.168C168.509 100.744 168.349 101.408 168.349 102.16C168.349 102.88 168.509 103.536 168.829 104.128C169.165 104.72 169.621 105.192 170.197 105.544C170.773 105.88 171.429 106.048 172.165 106.048ZM181.771 109V96.016H184.364V98.632L184.124 98.248C184.412 97.4 184.876 96.792 185.516 96.424C186.156 96.04 186.924 95.848 187.82 95.848H188.612V98.32H187.484C186.588 98.32 185.86 98.6 185.3 99.16C184.756 99.704 184.484 100.488 184.484 101.512V109H181.771ZM194.355 109.288C193.475 109.288 192.699 109.136 192.027 108.832C191.371 108.512 190.859 108.08 190.491 107.536C190.123 106.976 189.939 106.32 189.939 105.568C189.939 104.864 190.091 104.232 190.395 103.672C190.715 103.112 191.203 102.64 191.859 102.256C192.515 101.872 193.339 101.6 194.331 101.44L198.843 100.696V102.832L194.859 103.528C194.139 103.656 193.611 103.888 193.275 104.224C192.939 104.544 192.771 104.96 192.771 105.472C192.771 105.968 192.955 106.376 193.323 106.696C193.707 107 194.195 107.152 194.787 107.152C195.523 107.152 196.163 106.992 196.707 106.672C197.267 106.352 197.699 105.928 198.003 105.4C198.307 104.856 198.459 104.256 198.459 103.6V100.264C198.459 99.624 198.219 99.104 197.739 98.704C197.275 98.288 196.651 98.08 195.867 98.08C195.147 98.08 194.515 98.272 193.971 98.656C193.443 99.024 193.051 99.504 192.795 100.096L190.539 98.968C190.779 98.328 191.171 97.768 191.715 97.288C192.259 96.792 192.891 96.408 193.611 96.136C194.347 95.864 195.123 95.728 195.939 95.728C196.963 95.728 197.867 95.92 198.651 96.304C199.451 96.688 200.067 97.224 200.499 97.912C200.947 98.584 201.171 99.368 201.171 100.264V109H198.579V106.648L199.131 106.72C198.827 107.248 198.435 107.704 197.955 108.088C197.491 108.472 196.955 108.768 196.347 108.976C195.755 109.184 195.091 109.288 194.355 109.288ZM204.342 109V96.016H206.934V98.824L206.598 98.392C206.87 97.512 207.366 96.848 208.086 96.4C208.806 95.952 209.63 95.728 210.558 95.728C211.598 95.728 212.518 96.008 213.318 96.568C214.134 97.112 214.678 97.84 214.95 98.752L214.182 98.824C214.566 97.784 215.15 97.008 215.934 96.496C216.734 95.984 217.646 95.728 218.67 95.728C219.566 95.728 220.374 95.936 221.094 96.352C221.83 96.768 222.414 97.344 222.846 98.08C223.278 98.816 223.494 99.656 223.494 100.6V109H220.782V101.344C220.782 100.688 220.662 100.136 220.422 99.688C220.198 99.224 219.878 98.872 219.462 98.632C219.062 98.376 218.59 98.248 218.046 98.248C217.502 98.248 217.022 98.376 216.606 98.632C216.19 98.872 215.862 99.224 215.622 99.688C215.382 100.152 215.262 100.704 215.262 101.344V109H212.574V101.344C212.574 100.688 212.454 100.136 212.214 99.688C211.99 99.224 211.67 98.872 211.254 98.632C210.854 98.376 210.374 98.248 209.814 98.248C209.27 98.248 208.79 98.376 208.374 98.632C207.958 98.872 207.63 99.224 207.39 99.688C207.166 100.152 207.054 100.704 207.054 101.344V109H204.342ZM230.285 109.288C229.405 109.288 228.629 109.136 227.957 108.832C227.301 108.512 226.789 108.08 226.421 107.536C226.053 106.976 225.869 106.32 225.869 105.568C225.869 104.864 226.021 104.232 226.325 103.672C226.645 103.112 227.133 102.64 227.789 102.256C228.445 101.872 229.269 101.6 230.261 101.44L234.773 100.696V102.832L230.789 103.528C230.069 103.656 229.541 103.888 229.205 104.224C228.869 104.544 228.701 104.96 228.701 105.472C228.701 105.968 228.885 106.376 229.253 106.696C229.637 107 230.125 107.152 230.717 107.152C231.453 107.152 232.093 106.992 232.637 106.672C233.197 106.352 233.629 105.928 233.933 105.4C234.237 104.856 234.389 104.256 234.389 103.6V100.264C234.389 99.624 234.149 99.104 233.669 98.704C233.205 98.288 232.581 98.08 231.797 98.08C231.077 98.08 230.445 98.272 229.901 98.656C229.373 99.024 228.981 99.504 228.725 100.096L226.469 98.968C226.709 98.328 227.101 97.768 227.645 97.288C228.189 96.792 228.821 96.408 229.541 96.136C230.277 95.864 231.053 95.728 231.868 95.728C232.893 95.728 233.797 95.92 234.581 96.304C235.381 96.688 235.997 97.224 236.429 97.912C236.877 98.584 237.101 99.368 237.101 100.264V109H234.509V106.648L235.061 106.72C234.757 107.248 234.365 107.704 233.885 108.088C233.421 108.472 232.885 108.768 232.277 108.976C231.685 109.184 231.021 109.288 230.285 109.288ZM246.44 109.288C245.144 109.288 243.992 108.992 242.984 108.4C241.992 107.792 241.2 106.976 240.608 105.952C240.032 104.928 239.744 103.768 239.744 102.472C239.744 101.192 240.032 100.04 240.608 99.016C241.184 97.992 241.976 97.192 242.984 96.616C243.992 96.024 245.144 95.728 246.44 95.728C247.32 95.728 248.144 95.888 248.912 96.208C249.68 96.512 250.344 96.936 250.904 97.48C251.48 98.024 251.904 98.656 252.176 99.376L249.8 100.48C249.528 99.808 249.088 99.272 248.48 98.872C247.888 98.456 247.208 98.248 246.44 98.248C245.704 98.248 245.04 98.432 244.448 98.8C243.872 99.152 243.416 99.656 243.08 100.312C242.744 100.952 242.576 101.68 242.576 102.496C242.576 103.312 242.744 104.048 243.08 104.704C243.416 105.344 243.872 105.848 244.448 106.216C245.04 106.584 245.704 106.768 246.44 106.768C247.224 106.768 247.904 106.568 248.48 106.168C249.072 105.752 249.512 105.2 249.8 104.512L252.176 105.64C251.92 106.328 251.504 106.952 250.928 107.512C250.368 108.056 249.704 108.488 248.936 108.808C248.168 109.128 247.336 109.288 246.44 109.288ZM246.704 114.64C246.256 114.64 245.784 114.568 245.288 114.424C244.792 114.28 244.376 114.072 244.04 113.8L244.664 112.168C244.904 112.36 245.168 112.504 245.456 112.6C245.76 112.712 246.056 112.768 246.344 112.768C246.696 112.768 246.968 112.688 247.16 112.528C247.368 112.368 247.472 112.152 247.472 111.88C247.472 111.56 247.28 111.304 246.896 111.112C246.528 110.92 245.952 110.784 245.168 110.704L245.696 108.76H247.376L247.112 109.792C247.96 109.92 248.608 110.184 249.056 110.584C249.52 110.984 249.752 111.488 249.752 112.096C249.752 112.848 249.472 113.456 248.912 113.92C248.352 114.4 247.616 114.64 246.704 114.64ZM258.597 109.288C257.717 109.288 256.941 109.136 256.269 108.832C255.613 108.512 255.101 108.08 254.733 107.536C254.365 106.976 254.181 106.32 254.181 105.568C254.181 104.864 254.333 104.232 254.637 103.672C254.957 103.112 255.445 102.64 256.101 102.256C256.757 101.872 257.581 101.6 258.573 101.44L263.085 100.696V102.832L259.101 103.528C258.381 103.656 257.853 103.888 257.517 104.224C257.181 104.544 257.013 104.96 257.013 105.472C257.013 105.968 257.197 106.376 257.565 106.696C257.949 107 258.437 107.152 259.029 107.152C259.765 107.152 260.405 106.992 260.949 106.672C261.509 106.352 261.941 105.928 262.245 105.4C262.549 104.856 262.701 104.256 262.701 103.6V100.264C262.701 99.624 262.461 99.104 261.981 98.704C261.517 98.288 260.893 98.08 260.109 98.08C259.389 98.08 258.757 98.272 258.213 98.656C257.685 99.024 257.293 99.504 257.037 100.096L254.781 98.968C255.021 98.328 255.413 97.768 255.957 97.288C256.501 96.792 257.133 96.408 257.853 96.136C258.589 95.864 259.365 95.728 260.181 95.728C261.205 95.728 262.109 95.92 262.893 96.304C263.693 96.688 264.309 97.224 264.741 97.912C265.189 98.584 265.413 99.368 265.413 100.264V109H262.821V106.648L263.373 106.72C263.069 107.248 262.677 107.704 262.197 108.088C261.733 108.472 261.197 108.768 260.589 108.976C259.997 109.184 259.333 109.288 258.597 109.288ZM261.837 93.64C261.405 93.64 261.045 93.568 260.757 93.424C260.485 93.28 260.245 93.12 260.037 92.944C259.845 92.768 259.645 92.608 259.437 92.464C259.245 92.32 259.013 92.248 258.741 92.248C258.469 92.248 258.261 92.352 258.117 92.56C257.973 92.768 257.901 93.096 257.901 93.544H255.765C255.765 92.36 256.029 91.488 256.557 90.928C257.085 90.352 257.741 90.064 258.525 90.064C258.973 90.064 259.333 90.136 259.605 90.28C259.893 90.408 260.141 90.568 260.349 90.76C260.557 90.936 260.757 91.096 260.949 91.24C261.157 91.368 261.389 91.432 261.645 91.432C261.949 91.432 262.165 91.32 262.293 91.096C262.437 90.872 262.509 90.56 262.509 90.16H264.621C264.621 91.28 264.349 92.144 263.805 92.752C263.277 93.344 262.621 93.64 261.837 93.64ZM274.848 109.288C273.6 109.288 272.456 108.992 271.416 108.4C270.392 107.808 269.576 107 268.968 105.976C268.36 104.952 268.056 103.792 268.056 102.496C268.056 101.184 268.36 100.024 268.968 99.016C269.576 97.992 270.392 97.192 271.416 96.616C272.44 96.024 273.584 95.728 274.848 95.728C276.128 95.728 277.272 96.024 278.28 96.616C279.304 97.192 280.112 97.992 280.704 99.016C281.312 100.024 281.616 101.184 281.616 102.496C281.616 103.808 281.312 104.976 280.704 106C280.096 107.024 279.28 107.832 278.256 108.424C277.232 109 276.096 109.288 274.848 109.288ZM274.848 106.768C275.616 106.768 276.296 106.584 276.888 106.216C277.48 105.848 277.944 105.344 278.28 104.704C278.632 104.048 278.808 103.312 278.808 102.496C278.808 101.68 278.632 100.952 278.28 100.312C277.944 99.672 277.48 99.168 276.888 98.8C276.296 98.432 275.616 98.248 274.848 98.248C274.096 98.248 273.416 98.432 272.808 98.8C272.216 99.168 271.744 99.672 271.392 100.312C271.056 100.952 270.888 101.68 270.888 102.496C270.888 103.312 271.056 104.048 271.392 104.704C271.744 105.344 272.216 105.848 272.808 106.216C273.416 106.584 274.096 106.768 274.848 106.768Z" fill="white"/>
<defs>
<linearGradient id="paint0_linear_4152_480" x1="9.51786" y1="10" x2="93" y2="10" gradientUnits="userSpaceOnUse">
<stop stop-color="white"/>
<stop offset="1" stop-color="white" stop-opacity="0.4"/>
</linearGradient>
</defs>
</svg>
